<?xml version="1.0" encoding="utf-8"?>
<!-- Generator: Adobe Illustrator 27.6.1, SVG Export Plug-In . SVG Version: 6.00 Build 0)  -->
<svg version="1.1" xmlns="http://www.w3.org/2000/svg" xmlns:xlink="http://www.w3.org/1999/xlink" x="0px" y="0px" width="173.3px"
	 height="32px" viewBox="0 0 173.3 32" style="enable-background:new 0 0 173.3 32;" xml:space="preserve">
<style type="text/css">
	.st0{fill:#E30613;}
</style>
<g id="guide">
</g>
<g id="signifier">
</g>
<g id="one_line">
	<g>
		<path class="st0" d="M8.6,7.2c-2.9,0-4.9,1.5-5.8,3.2V7.5H0v17.9h2.8V14.6c0-3.2,2.4-4.9,5-4.9c2.9,0,4.2,1.4,4.2,4.6v11.2h2.8
			v-11C14.9,9.2,12.3,7.2,8.6,7.2z"/>
		<path class="st0" d="M27.2,7.2c-2.6,0-5,1.6-6.1,3.3v-3h-2.8v24.2h2.8v-9.2c1,1.8,3.1,3.3,6.1,3.3c4.9,0,8.2-3.8,8.2-9.3v-0.3
			C35.4,10.6,31.9,7.2,27.2,7.2z M32.4,16.6c0,4.4-1.9,6.8-5.5,6.8c-3.5,0-5.9-2.2-5.9-6.8v-0.3c0-4.6,2.5-6.8,5.9-6.8
			c3,0,5.5,2.3,5.5,6.8V16.6z"/>
		<path class="st0" d="M40.1,0c-1,0-1.9,0.9-1.9,1.9c0,1,0.9,1.9,1.9,1.9c1,0,1.9-0.9,1.9-1.9C41.9,0.9,41.1,0,40.1,0z"/>
		<path class="st0" d="M38.7,26.8c0,1.6-0.6,2.6-2.6,2.8V32c4-0.1,5.5-2,5.5-5.4V7.5h-2.8V26.8z"/>
		<rect x="59" class="st0" width="2" height="32"/>
		<path d="M80.4,4.8c-0.8,0-1.5,0.7-1.5,1.5c0,0.8,0.7,1.5,1.5,1.5c0.8,0,1.5-0.7,1.5-1.5C81.9,5.5,81.2,4.8,80.4,4.8z"/>
		<rect x="79.3" y="10.7" width="2.2" height="14.1"/>
		<path d="M100.7,10.5c-1.8,0-3.9,0.8-4.8,2.6c-0.7-1.9-2.3-2.6-4.1-2.6c-2,0-3.6,1.1-4.2,2.4v-2.2h-2.2v14.1h2.2v-8.6
			c0-2.5,1.9-3.8,3.7-3.8c1.9,0,3,1,3,3.5v8.9h2.2v-8.6c0-2.5,1.9-3.8,3.7-3.8c1.9,0,3,1,3,3.5v8.9h2.2v-8.7
			C105.5,12,103.3,10.5,100.7,10.5z"/>
		<path d="M114.4,10.5c-2.7,0-5.3,1.2-5.6,4.4h2.2c0.2-1.7,1.3-2.5,3.2-2.5c2.2,0,3,0.9,3,3.2v1h-2c-3.6,0-7.1,1.1-7.1,4.4
			c0,2.9,2.1,4.1,4.7,4.1c2.1,0,3.3-0.7,4.4-2v1.8h2.2v-9.3C119.5,11.6,117.1,10.5,114.4,10.5z M117.3,19.9c0,2.2-1.8,3.4-4.2,3.4
			c-2,0-2.7-0.9-2.7-2.4c0-2.1,2.1-2.8,4.9-2.8h1.9V19.9z"/>
		<path d="M133.4,13c-0.8-1.4-2.3-2.5-4.6-2.5c-3.9,0-6.6,3.2-6.6,7v0.2c0,3.9,2.7,6.7,6.4,6.7c2,0,4-1.3,4.8-2.7v2
			c0,3-1.8,4.3-4.5,4.3c-2.4,0-3.7-0.8-4.1-2.5h-2.3c0.4,2.4,2.2,4.3,6.4,4.3c3.9,0,6.7-2,6.7-6.1V10.7h-2.2V13z M133.5,17.5
			c0,3.2-2,5-4.6,5c-2.4,0-4.3-1.8-4.3-4.9v-0.2c0-3,1.7-5,4.5-5c2.7,0,4.5,1.8,4.5,5V17.5z"/>
		<path d="M140.6,4.8c-0.8,0-1.5,0.7-1.5,1.5c0,0.8,0.7,1.5,1.5,1.5c0.8,0,1.5-0.7,1.5-1.5C142,5.5,141.4,4.8,140.6,4.8z"/>
		<rect x="139.5" y="10.7" width="2.2" height="14.1"/>
		<path d="M152.3,10.5c-2.3,0-3.9,1.2-4.5,2.5v-2.2h-2.2v14.1h2.2v-8.5c0-2.5,1.9-3.9,3.9-3.9c2.3,0,3.3,1.1,3.3,3.6v8.8h2.2v-8.6
			C157.2,12.1,155.2,10.5,152.3,10.5z"/>
		<path d="M171.1,10.7V13c-0.8-1.4-2.3-2.5-4.6-2.5c-3.9,0-6.6,3.2-6.6,7v0.2c0,3.9,2.7,6.7,6.4,6.7c2,0,4-1.3,4.8-2.7v2
			c0,3-1.8,4.3-4.5,4.3c-2.4,0-3.7-0.8-4.1-2.5h-2.3c0.4,2.4,2.2,4.3,6.4,4.3c3.9,0,6.7-2,6.7-6.1V10.7H171.1z M171.2,17.5
			c0,3.2-2,5-4.6,5c-2.4,0-4.3-1.8-4.3-4.9v-0.2c0-3,1.7-5,4.5-5c2.7,0,4.5,1.8,4.5,5V17.5z"/>
	</g>
</g>
</svg>
